<?xml version="1.0" encoding="UTF-8"?><svg xmlns="http://www.w3.org/2000/svg" xmlns:xlink="http://www.w3.org/1999/xlink" fill-opacity="1" color-rendering="auto" color-interpolation="auto" text-rendering="auto" stroke="black" stroke-linecap="square" width="130" stroke-miterlimit="10" shape-rendering="auto" stroke-opacity="1" fill="black" stroke-dasharray="none" font-weight="normal" stroke-width="1" height="122" font-family="'Dialog'" font-style="normal" stroke-linejoin="miter" font-size="12px" stroke-dashoffset="0" image-rendering="auto">
  <!--Generated by ySVG 2.5-->
  <defs id="genericDefs"/>
  <g>
    <g fill="url(#linearGradient1)" text-rendering="geometricPrecision" shape-rendering="geometricPrecision" transform="matrix(1,0,0,1,-345,-326)" stroke="url(#linearGradient1)">
      <path d="M345.8336 326.2809 L474.9571 326.2809 L474.9571 447.6693 L345.8336 447.6693 Z" stroke="none" clip-path="url(#clipPath2)"/>
    </g>
    <g fill="lime" text-rendering="geometricPrecision" shape-rendering="geometricPrecision" transform="matrix(1,0,0,1,-345,-326)" stroke="lime">
      <path d="M366.9657 405 L453.825 405 L453.825 427 L366.9657 427 Z" stroke="none" clip-path="url(#clipPath2)"/>
      <path fill="rgb(10,74,74)" d="M373.4537 417.832 Q374.0417 417.832 374.4437 417.592 Q374.8457 417.352 375.0917 416.968 Q375.3377 416.584 375.4397 416.086 Q375.5417 415.588 375.5417 415.06 L375.5417 410.716 L377.1857 410.716 L377.1857 415.06 Q377.1857 415.936 376.9757 416.704 Q376.7657 417.472 376.3157 418.048 Q375.8657 418.624 375.1577 418.96 Q374.4497 419.296 373.4657 419.296 Q372.4457 419.296 371.7317 418.942 Q371.0177 418.588 370.5737 418.006 Q370.1297 417.424 369.9317 416.656 Q369.7337 415.888 369.7337 415.06 L369.7337 410.716 L371.3897 410.716 L371.3897 415.06 Q371.3897 415.6 371.4917 416.098 Q371.5937 416.596 371.8397 416.98 Q372.0857 417.364 372.4817 417.598 Q372.8777 417.832 373.4537 417.832 ZM381.0737 419.356 Q380.2817 419.356 379.5257 419.104 Q378.7697 418.852 378.2297 418.384 L378.8297 417.376 Q379.4057 417.784 379.9517 417.994 Q380.4977 418.204 381.0377 418.204 Q381.5177 418.204 381.7937 418.024 Q382.0697 417.844 382.0697 417.508 Q382.0697 417.172 381.7457 417.016 Q381.4217 416.86 380.6897 416.656 Q380.0777 416.488 379.6457 416.332 Q379.2137 416.176 378.9497 415.978 Q378.6857 415.78 378.5657 415.522 Q378.4457 415.264 378.4457 414.904 Q378.4457 414.424 378.6317 414.04 Q378.8177 413.656 379.1537 413.386 Q379.4897 413.116 379.9397 412.972 Q380.3897 412.828 380.9177 412.828 Q381.6257 412.828 382.2437 413.032 Q382.8617 413.236 383.3777 413.692 L382.7297 414.664 Q382.2497 414.304 381.7997 414.136 Q381.3497 413.968 380.9057 413.968 Q380.4977 413.968 380.2217 414.136 Q379.9457 414.304 379.9457 414.676 Q379.9457 414.844 380.0117 414.952 Q380.0777 415.06 380.2217 415.144 Q380.3657 415.228 380.5997 415.306 Q380.8337 415.384 381.1817 415.468 Q381.8297 415.636 382.2917 415.804 Q382.7537 415.972 383.0477 416.188 Q383.3417 416.404 383.4797 416.686 Q383.6177 416.968 383.6177 417.364 Q383.6177 418.288 382.9337 418.822 Q382.2497 419.356 381.0737 419.356 ZM387.5777 419.356 Q386.8217 419.356 386.2097 419.098 Q385.5977 418.84 385.1657 418.396 Q384.7337 417.952 384.4997 417.364 Q384.2657 416.776 384.2657 416.128 Q384.2657 415.456 384.4937 414.862 Q384.7217 414.268 385.1537 413.818 Q385.5857 413.368 386.2037 413.104 Q386.8217 412.84 387.5897 412.84 Q388.3577 412.84 388.9637 413.104 Q389.5697 413.368 389.9957 413.812 Q390.4217 414.256 390.6437 414.844 Q390.8657 415.432 390.8657 416.068 Q390.8657 416.224 390.8597 416.368 Q390.8537 416.512 390.8297 416.608 L385.9697 416.608 Q386.0057 416.98 386.1497 417.268 Q386.2937 417.556 386.5217 417.76 Q386.7497 417.964 387.0377 418.072 Q387.3257 418.18 387.6377 418.18 Q388.1177 418.18 388.5437 417.946 Q388.9697 417.712 389.1257 417.328 L390.5057 417.712 Q390.1577 418.432 389.3957 418.894 Q388.6337 419.356 387.5777 419.356 ZM389.2097 415.564 Q389.1497 414.856 388.6877 414.43 Q388.2257 414.004 387.5657 414.004 Q387.2417 414.004 386.9597 414.118 Q386.6777 414.232 386.4617 414.436 Q386.2457 414.64 386.1077 414.928 Q385.9697 415.216 385.9457 415.564 ZM395.5937 414.34 Q394.8617 414.352 394.2857 414.622 Q393.7097 414.892 393.4577 415.432 L393.4577 419.236 L391.8497 419.236 L391.8497 412.948 L393.3257 412.948 L393.3257 414.292 Q393.4937 413.968 393.7217 413.71 Q393.9497 413.452 394.2137 413.26 Q394.4777 413.068 394.7477 412.966 Q395.0177 412.864 395.2697 412.864 Q395.4017 412.864 395.4677 412.864 Q395.5337 412.864 395.5937 412.876 ZM399.5297 419.236 L399.5297 410.716 L401.1857 410.716 L401.1857 419.236 ZM408.6497 419.236 L407.0417 419.236 L407.0417 415.708 Q407.0417 414.952 406.7777 414.604 Q406.5137 414.256 406.0457 414.256 Q405.8057 414.256 405.5537 414.352 Q405.3017 414.448 405.0797 414.622 Q404.8577 414.796 404.6777 415.036 Q404.4977 415.276 404.4137 415.564 L404.4137 419.236 L402.8057 419.236 L402.8057 412.948 L404.2577 412.948 L404.2577 414.112 Q404.6057 413.512 405.2657 413.176 Q405.9257 412.84 406.7537 412.84 Q407.3417 412.84 407.7137 413.056 Q408.0857 413.272 408.2897 413.62 Q408.4937 413.968 408.5717 414.412 Q408.6497 414.856 408.6497 415.312 ZM413.8217 418.912 Q413.4977 419.056 413.0297 419.2 Q412.5616 419.344 412.0457 419.344 Q411.7097 419.344 411.4156 419.26 Q411.1216 419.176 410.8997 418.99 Q410.6776 418.804 410.5457 418.51 Q410.4137 418.216 410.4137 417.796 L410.4137 414.184 L409.5857 414.184 L409.5857 412.948 L410.4137 412.948 L410.4137 410.908 L412.0217 410.908 L412.0217 412.948 L413.3416 412.948 L413.3416 414.184 L412.0217 414.184 L412.0217 417.256 Q412.0217 417.592 412.1956 417.73 Q412.3697 417.868 412.6216 417.868 Q412.8737 417.868 413.1136 417.784 Q413.3537 417.7 413.4977 417.64 ZM417.5777 419.356 Q416.8217 419.356 416.2097 419.098 Q415.5977 418.84 415.1656 418.396 Q414.7336 417.952 414.4997 417.364 Q414.2657 416.776 414.2657 416.128 Q414.2657 415.456 414.4937 414.862 Q414.7216 414.268 415.1537 413.818 Q415.5857 413.368 416.2036 413.104 Q416.8217 412.84 417.5897 412.84 Q418.3577 412.84 418.9637 413.104 Q419.5697 413.368 419.9957 413.812 Q420.4217 414.256 420.6436 414.844 Q420.8657 415.432 420.8657 416.068 Q420.8657 416.224 420.8596 416.368 Q420.8537 416.512 420.8297 416.608 L415.9697 416.608 Q416.0056 416.98 416.1497 417.268 Q416.2937 417.556 416.5217 417.76 Q416.7497 417.964 417.0377 418.072 Q417.3257 418.18 417.6377 418.18 Q418.1176 418.18 418.5437 417.946 Q418.9697 417.712 419.1257 417.328 L420.5056 417.712 Q420.1577 418.432 419.3957 418.894 Q418.6337 419.356 417.5777 419.356 ZM419.2097 415.564 Q419.1497 414.856 418.6877 414.43 Q418.2256 414.004 417.5656 414.004 Q417.2417 414.004 416.9597 414.118 Q416.6776 414.232 416.4617 414.436 Q416.2457 414.64 416.1077 414.928 Q415.9697 415.216 415.9456 415.564 ZM425.5937 414.34 Q424.8616 414.352 424.2856 414.622 Q423.7097 414.892 423.4576 415.432 L423.4576 419.236 L421.8496 419.236 L421.8496 412.948 L423.3257 412.948 L423.3257 414.292 Q423.4937 413.968 423.7216 413.71 Q423.9496 413.452 424.2137 413.26 Q424.4776 413.068 424.7477 412.966 Q425.0176 412.864 425.2697 412.864 Q425.4016 412.864 425.4677 412.864 Q425.5336 412.864 425.5937 412.876 ZM426.8777 419.236 L426.8777 414.508 L426.0497 414.508 L426.0497 413.284 L426.8777 413.284 L426.8777 412.9 Q426.8777 411.724 427.4417 411.04 Q428.0056 410.356 428.9777 410.356 Q429.7457 410.356 430.5257 410.728 L430.2017 411.94 Q430.0217 411.844 429.7757 411.778 Q429.5297 411.712 429.3257 411.712 Q428.4857 411.712 428.4857 412.84 L428.4857 413.284 L430.0217 413.284 L430.0217 414.508 L428.4857 414.508 L428.4857 419.236 ZM432.6496 419.356 Q432.1936 419.356 431.7976 419.206 Q431.4016 419.056 431.1136 418.786 Q430.8256 418.516 430.6636 418.156 Q430.5016 417.796 430.5016 417.364 Q430.5016 416.92 430.6996 416.542 Q430.8976 416.164 431.2516 415.9 Q431.6056 415.636 432.0976 415.486 Q432.5896 415.336 433.1776 415.336 Q433.5976 415.336 433.9996 415.408 Q434.4016 415.48 434.7136 415.612 L434.7136 415.252 Q434.7136 414.628 434.3596 414.292 Q434.0056 413.956 433.3096 413.956 Q432.8056 413.956 432.3256 414.136 Q431.8456 414.316 431.3416 414.664 L430.8496 413.644 Q432.0616 412.84 433.4656 412.84 Q434.8216 412.84 435.5716 413.506 Q436.3216 414.172 436.3216 415.432 L436.3216 417.388 Q436.3216 417.64 436.4116 417.748 Q436.5016 417.856 436.7056 417.868 L436.7056 419.236 Q436.2976 419.32 435.9976 419.32 Q435.5416 419.32 435.2956 419.116 Q435.0496 418.912 434.9896 418.576 L434.9536 418.228 Q434.5336 418.78 433.9336 419.068 Q433.3336 419.356 432.6496 419.356 ZM433.1056 418.18 Q433.5136 418.18 433.8796 418.036 Q434.2456 417.892 434.4496 417.652 Q434.7136 417.448 434.7136 417.196 L434.7136 416.476 Q434.4256 416.368 434.0896 416.302 Q433.7536 416.236 433.4416 416.236 Q432.8176 416.236 432.4216 416.518 Q432.0256 416.8 432.0256 417.232 Q432.0256 417.64 432.3376 417.91 Q432.6496 418.18 433.1056 418.18 ZM437.4256 416.092 Q437.4256 415.432 437.6536 414.844 Q437.8816 414.256 438.3136 413.812 Q438.7456 413.368 439.3576 413.104 Q439.9696 412.84 440.7376 412.84 Q441.7696 412.84 442.4956 413.284 Q443.2216 413.728 443.5816 414.448 L442.0096 414.928 Q441.8056 414.58 441.4696 414.394 Q441.1336 414.208 440.7256 414.208 Q440.3776 414.208 440.0776 414.346 Q439.7776 414.484 439.5556 414.73 Q439.3336 414.976 439.2076 415.324 Q439.0816 415.672 439.0816 416.092 Q439.0816 416.512 439.2136 416.86 Q439.3456 417.208 439.5676 417.46 Q439.7896 417.712 440.0896 417.85 Q440.3896 417.988 440.7256 417.988 Q441.1576 417.988 441.5236 417.772 Q441.8896 417.556 442.0336 417.244 L443.6056 417.724 Q443.2816 418.444 442.5376 418.9 Q441.7936 419.356 440.7496 419.356 Q439.9816 419.356 439.3696 419.092 Q438.7576 418.828 438.3256 418.378 Q437.8936 417.928 437.6596 417.334 Q437.4256 416.74 437.4256 416.092 ZM447.5056 419.356 Q446.7496 419.356 446.1376 419.098 Q445.5256 418.84 445.0936 418.396 Q444.6616 417.952 444.4276 417.364 Q444.1936 416.776 444.1936 416.128 Q444.1936 415.456 444.4216 414.862 Q444.6496 414.268 445.0816 413.818 Q445.5136 413.368 446.1316 413.104 Q446.7496 412.84 447.5176 412.84 Q448.2856 412.84 448.8916 413.104 Q449.4976 413.368 449.9236 413.812 Q450.3496 414.256 450.5716 414.844 Q450.7936 415.432 450.7936 416.068 Q450.7936 416.224 450.7876 416.368 Q450.7816 416.512 450.7576 416.608 L445.8976 416.608 Q445.9336 416.98 446.0776 417.268 Q446.2216 417.556 446.4496 417.76 Q446.6776 417.964 446.9656 418.072 Q447.2536 418.18 447.5656 418.18 Q448.0456 418.18 448.4716 417.946 Q448.8976 417.712 449.0536 417.328 L450.4336 417.712 Q450.0856 418.432 449.3236 418.894 Q448.5616 419.356 447.5056 419.356 ZM449.1376 415.564 Q449.0776 414.856 448.6156 414.43 Q448.1536 414.004 447.4936 414.004 Q447.1696 414.004 446.8876 414.118 Q446.6056 414.232 446.3896 414.436 Q446.1736 414.64 446.0356 414.928 Q445.8976 415.216 445.8736 415.564 Z" clip-path="url(#clipPath3)" stroke="none"/>
    </g>
    <g fill="lime" text-rendering="geometricPrecision" shape-rendering="geometricPrecision" transform="matrix(1,0,0,1,-345,-326)" stroke="lime">
      <path d="M352.6366 420 L468.1541 420 L468.1541 442 L352.6366 442 Z" stroke="none" clip-path="url(#clipPath2)"/>
      <path fill="rgb(10,74,74)" d="M355.5246 434.236 L355.5246 425.716 L359.1366 425.716 Q359.7246 425.716 360.2226 425.962 Q360.7206 426.208 361.0806 426.61 Q361.4406 427.012 361.6446 427.522 Q361.8486 428.032 361.8486 428.548 Q361.8486 429.088 361.6566 429.598 Q361.4646 430.108 361.1166 430.504 Q360.7686 430.9 360.2766 431.14 Q359.7846 431.38 359.1966 431.38 L357.1806 431.38 L357.1806 434.236 ZM357.1806 429.928 L359.1006 429.928 Q359.5566 429.928 359.8626 429.556 Q360.1686 429.184 360.1686 428.548 Q360.1686 428.224 360.0726 427.966 Q359.9766 427.708 359.8206 427.528 Q359.6646 427.348 359.4546 427.258 Q359.2446 427.168 359.0286 427.168 L357.1806 427.168 ZM365.7606 434.356 Q365.0046 434.356 364.3926 434.098 Q363.7806 433.84 363.3486 433.396 Q362.9166 432.952 362.6826 432.364 Q362.4486 431.776 362.4486 431.128 Q362.4486 430.456 362.6766 429.862 Q362.9046 429.268 363.3366 428.818 Q363.7686 428.368 364.3866 428.104 Q365.0046 427.84 365.7726 427.84 Q366.5406 427.84 367.1466 428.104 Q367.7526 428.368 368.1786 428.812 Q368.6046 429.256 368.8266 429.844 Q369.0486 430.432 369.0486 431.068 Q369.0486 431.224 369.0426 431.368 Q369.0366 431.512 369.0126 431.608 L364.1526 431.608 Q364.1886 431.98 364.3326 432.268 Q364.4766 432.556 364.7046 432.76 Q364.9326 432.964 365.2206 433.072 Q365.5086 433.18 365.8206 433.18 Q366.3006 433.18 366.7266 432.946 Q367.1526 432.712 367.3086 432.328 L368.6886 432.712 Q368.3406 433.432 367.5786 433.894 Q366.8166 434.356 365.7606 434.356 ZM367.3926 430.564 Q367.3326 429.856 366.8706 429.43 Q366.4086 429.004 365.7486 429.004 Q365.4246 429.004 365.1426 429.118 Q364.8606 429.232 364.6446 429.436 Q364.4286 429.64 364.2906 429.928 Q364.1526 430.216 364.1286 430.564 ZM373.7766 429.34 Q373.0446 429.352 372.4686 429.622 Q371.8926 429.892 371.6406 430.432 L371.6406 434.236 L370.0326 434.236 L370.0326 427.948 L371.5086 427.948 L371.5086 429.292 Q371.6766 428.968 371.9046 428.71 Q372.1326 428.452 372.3966 428.26 Q372.6606 428.068 372.9306 427.966 Q373.2006 427.864 373.4526 427.864 Q373.5846 427.864 373.6506 427.864 Q373.7166 427.864 373.7766 427.876 ZM377.0526 434.356 Q376.2606 434.356 375.5046 434.104 Q374.7486 433.852 374.2086 433.384 L374.8086 432.376 Q375.3846 432.784 375.9306 432.994 Q376.4766 433.204 377.0166 433.204 Q377.4966 433.204 377.7726 433.024 Q378.0486 432.844 378.0486 432.508 Q378.0486 432.172 377.7246 432.016 Q377.4006 431.86 376.6686 431.656 Q376.0566 431.488 375.6246 431.332 Q375.1926 431.176 374.9286 430.978 Q374.6646 430.78 374.5446 430.522 Q374.4246 430.264 374.4246 429.904 Q374.4246 429.424 374.6106 429.04 Q374.7966 428.656 375.1326 428.386 Q375.4686 428.116 375.9186 427.972 Q376.3686 427.828 376.8966 427.828 Q377.6046 427.828 378.2226 428.032 Q378.8406 428.236 379.3566 428.692 L378.7086 429.664 Q378.2286 429.304 377.7786 429.136 Q377.3286 428.968 376.8846 428.968 Q376.4766 428.968 376.2006 429.136 Q375.9246 429.304 375.9246 429.676 Q375.9246 429.844 375.9906 429.952 Q376.0566 430.06 376.2006 430.144 Q376.3446 430.228 376.5786 430.306 Q376.8126 430.384 377.1606 430.468 Q377.8086 430.636 378.2706 430.804 Q378.7326 430.972 379.0266 431.188 Q379.3206 431.404 379.4586 431.686 Q379.5966 431.968 379.5966 432.364 Q379.5966 433.288 378.9126 433.822 Q378.2286 434.356 377.0526 434.356 ZM383.5446 434.356 Q382.7766 434.356 382.1646 434.092 Q381.5526 433.828 381.1266 433.378 Q380.7006 432.928 380.4726 432.34 Q380.2446 431.752 380.2446 431.104 Q380.2446 430.444 380.4726 429.856 Q380.7006 429.268 381.1266 428.818 Q381.5526 428.368 382.1646 428.104 Q382.7766 427.84 383.5446 427.84 Q384.3126 427.84 384.9186 428.104 Q385.5246 428.368 385.9506 428.818 Q386.3766 429.268 386.6046 429.856 Q386.8326 430.444 386.8326 431.104 Q386.8326 431.752 386.6046 432.34 Q386.3766 432.928 385.9566 433.378 Q385.5366 433.828 384.9246 434.092 Q384.3126 434.356 383.5446 434.356 ZM381.9006 431.104 Q381.9006 431.524 382.0266 431.866 Q382.1526 432.208 382.3746 432.46 Q382.5966 432.712 382.8966 432.85 Q383.1966 432.988 383.5446 432.988 Q383.8926 432.988 384.1926 432.85 Q384.4926 432.712 384.7146 432.46 Q384.9366 432.208 385.0626 431.86 Q385.1886 431.512 385.1886 431.092 Q385.1886 430.684 385.0626 430.336 Q384.9366 429.988 384.7146 429.736 Q384.4926 429.484 384.1926 429.346 Q383.8926 429.208 383.5446 429.208 Q383.1966 429.208 382.8966 429.352 Q382.5966 429.496 382.3746 429.748 Q382.1526 430 382.0266 430.348 Q381.9006 430.696 381.9006 431.104 ZM393.7565 434.236 L392.1485 434.236 L392.1485 430.708 Q392.1485 429.952 391.8846 429.604 Q391.6205 429.256 391.1525 429.256 Q390.9125 429.256 390.6606 429.352 Q390.4085 429.448 390.1866 429.622 Q389.9645 429.796 389.7845 430.036 Q389.6046 430.276 389.5205 430.564 L389.5205 434.236 L387.9125 434.236 L387.9125 427.948 L389.3645 427.948 L389.3645 429.112 Q389.7126 428.512 390.3725 428.176 Q391.0325 427.84 391.8605 427.84 Q392.4485 427.84 392.8206 428.056 Q393.1925 428.272 393.3965 428.62 Q393.6006 428.968 393.6785 429.412 Q393.7565 429.856 393.7565 430.312 ZM396.8765 434.356 Q396.4205 434.356 396.0245 434.206 Q395.6285 434.056 395.3405 433.786 Q395.0525 433.516 394.8905 433.156 Q394.7285 432.796 394.7285 432.364 Q394.7285 431.92 394.9265 431.542 Q395.1245 431.164 395.4785 430.9 Q395.8325 430.636 396.3245 430.486 Q396.8165 430.336 397.4045 430.336 Q397.8245 430.336 398.2265 430.408 Q398.6285 430.48 398.9405 430.612 L398.9405 430.252 Q398.9405 429.628 398.5865 429.292 Q398.2325 428.956 397.5365 428.956 Q397.0325 428.956 396.5525 429.136 Q396.0725 429.316 395.5685 429.664 L395.0765 428.644 Q396.2885 427.84 397.6925 427.84 Q399.0485 427.84 399.7985 428.506 Q400.5485 429.172 400.5485 430.432 L400.5485 432.388 Q400.5485 432.64 400.6385 432.748 Q400.7285 432.856 400.9325 432.868 L400.9325 434.236 Q400.5245 434.32 400.2245 434.32 Q399.7685 434.32 399.5225 434.116 Q399.2765 433.912 399.2165 433.576 L399.1805 433.228 Q398.7605 433.78 398.1605 434.068 Q397.5605 434.356 396.8765 434.356 ZM397.3325 433.18 Q397.7405 433.18 398.1065 433.036 Q398.4725 432.892 398.6765 432.652 Q398.9405 432.448 398.9405 432.196 L398.9405 431.476 Q398.6525 431.368 398.3165 431.302 Q397.9805 431.236 397.6685 431.236 Q397.0445 431.236 396.6485 431.518 Q396.2525 431.8 396.2525 432.232 Q396.2525 432.64 396.5645 432.91 Q396.8765 433.18 397.3325 433.18 ZM402.0365 425.476 L403.6445 425.476 L403.6445 432.22 Q403.6445 432.568 403.8125 432.76 Q403.9805 432.952 404.2925 432.952 Q404.4365 432.952 404.6105 432.904 Q404.7845 432.856 404.9405 432.784 L405.1565 434.008 Q404.8325 434.164 404.4005 434.248 Q403.9685 434.332 403.6205 434.332 Q402.8645 434.332 402.4505 433.93 Q402.0365 433.528 402.0365 432.784 ZM408.3725 429.916 Q408.3725 429.136 408.6545 428.374 Q408.9365 427.612 409.4765 427.012 Q410.0165 426.412 410.7965 426.04 Q411.5765 425.668 412.5725 425.668 Q413.7485 425.668 414.6065 426.184 Q415.4645 426.7 415.8845 427.528 L414.6125 428.404 Q414.4445 428.044 414.2045 427.798 Q413.9645 427.552 413.6885 427.408 Q413.4125 427.264 413.1125 427.198 Q412.8125 427.132 412.5245 427.132 Q411.9005 427.132 411.4385 427.384 Q410.9765 427.636 410.6705 428.038 Q410.3645 428.44 410.2085 428.95 Q410.0525 429.46 410.0525 429.964 Q410.0525 430.528 410.2325 431.05 Q410.4125 431.572 410.7425 431.968 Q411.0725 432.364 411.5345 432.604 Q411.9965 432.844 412.5485 432.844 Q412.8365 432.844 413.1485 432.772 Q413.4605 432.7 413.7425 432.544 Q414.0245 432.388 414.2645 432.142 Q414.5045 431.896 414.6485 431.548 L416.0045 432.328 Q415.8005 432.808 415.4225 433.174 Q415.0445 433.54 414.5705 433.792 Q414.0965 434.044 413.5565 434.176 Q413.0165 434.308 412.5005 434.308 Q411.5885 434.308 410.8325 433.924 Q410.0765 433.54 409.5305 432.922 Q408.9845 432.304 408.6785 431.518 Q408.3725 430.732 408.3725 429.916 ZM419.8685 434.356 Q419.1005 434.356 418.4885 434.092 Q417.8765 433.828 417.4505 433.378 Q417.0245 432.928 416.7965 432.34 Q416.5685 431.752 416.5685 431.104 Q416.5685 430.444 416.7965 429.856 Q417.0245 429.268 417.4505 428.818 Q417.8765 428.368 418.4885 428.104 Q419.1005 427.84 419.8685 427.84 Q420.6365 427.84 421.2425 428.104 Q421.8485 428.368 422.2745 428.818 Q422.7005 429.268 422.9285 429.856 Q423.1565 430.444 423.1565 431.104 Q423.1565 431.752 422.9285 432.34 Q422.7005 432.928 422.2805 433.378 Q421.8605 433.828 421.2485 434.092 Q420.6365 434.356 419.8685 434.356 ZM418.2245 431.104 Q418.2245 431.524 418.3505 431.866 Q418.4765 432.208 418.6985 432.46 Q418.9205 432.712 419.2205 432.85 Q419.5205 432.988 419.8685 432.988 Q420.2165 432.988 420.5165 432.85 Q420.8165 432.712 421.0385 432.46 Q421.2605 432.208 421.3865 431.86 Q421.5125 431.512 421.5125 431.092 Q421.5125 430.684 421.3865 430.336 Q421.2605 429.988 421.0385 429.736 Q420.8165 429.484 420.5165 429.346 Q420.2165 429.208 419.8685 429.208 Q419.5205 429.208 419.2205 429.352 Q418.9205 429.496 418.6985 429.748 Q418.4765 430 418.3505 430.348 Q418.2245 430.696 418.2245 431.104 ZM434.0045 434.236 L432.3965 434.236 L432.3965 430.708 Q432.3965 429.952 432.1385 429.604 Q431.8805 429.256 431.4245 429.256 Q430.9445 429.256 430.5245 429.622 Q430.1045 429.988 429.9245 430.576 L429.9245 434.236 L428.3165 434.236 L428.3165 430.708 Q428.3165 429.952 428.0585 429.604 Q427.8005 429.256 427.3445 429.256 Q426.8765 429.256 426.4505 429.616 Q426.0245 429.976 425.8445 430.564 L425.8445 434.236 L424.2365 434.236 L424.2365 427.948 L425.6885 427.948 L425.6885 429.112 Q426.0365 428.5 426.6425 428.17 Q427.2485 427.84 428.0285 427.84 Q428.8205 427.84 429.2525 428.224 Q429.6845 428.608 429.8045 429.172 Q430.1885 428.524 430.7765 428.182 Q431.3645 427.84 432.1205 427.84 Q432.6965 427.84 433.0685 428.056 Q433.4405 428.272 433.6445 428.62 Q433.8485 428.968 433.9265 429.412 Q434.0045 429.856 434.0045 430.312 ZM439.1765 434.356 Q438.4325 434.356 437.8805 434.026 Q437.3285 433.696 437.0165 433.132 L437.0165 436.792 L435.4085 436.792 L435.4085 427.948 L436.8125 427.948 L436.8125 429.028 Q437.1605 428.476 437.7125 428.158 Q438.2645 427.84 438.9845 427.84 Q439.6205 427.84 440.1605 428.098 Q440.7005 428.356 441.0905 428.794 Q441.4805 429.232 441.7025 429.826 Q441.9245 430.42 441.9245 431.08 Q441.9245 431.764 441.7205 432.364 Q441.5165 432.964 441.1505 433.408 Q440.7845 433.852 440.2805 434.104 Q439.7765 434.356 439.1765 434.356 ZM438.6365 432.988 Q438.9965 432.988 439.3025 432.832 Q439.6085 432.676 439.8245 432.412 Q440.0405 432.148 440.1605 431.8 Q440.2805 431.452 440.2805 431.08 Q440.2805 430.684 440.1485 430.342 Q440.0165 430 439.7825 429.748 Q439.5485 429.496 439.2305 429.352 Q438.9125 429.208 438.5405 429.208 Q438.3125 429.208 438.0725 429.286 Q437.8325 429.364 437.6285 429.508 Q437.4245 429.652 437.2625 429.844 Q437.1005 430.036 437.0165 430.264 L437.0165 431.74 Q437.2325 432.28 437.6765 432.634 Q438.1205 432.988 438.6365 432.988 ZM444.9365 434.356 Q443.9645 434.356 443.4605 433.732 Q442.9565 433.108 442.9565 431.884 L442.9565 427.948 L444.5645 427.948 L444.5645 431.536 Q444.5645 432.988 445.6085 432.988 Q446.0765 432.988 446.5145 432.706 Q446.9525 432.424 447.2285 431.848 L447.2285 427.948 L448.8365 427.948 L448.8365 432.388 Q448.8365 432.64 448.9265 432.748 Q449.0165 432.856 449.2205 432.868 L449.2205 434.236 Q448.9805 434.284 448.8185 434.296 Q448.6565 434.308 448.5245 434.308 Q448.0925 434.308 447.8225 434.11 Q447.5525 433.912 447.5045 433.564 L447.4685 433.06 Q447.0485 433.708 446.3885 434.032 Q445.7285 434.356 444.9365 434.356 ZM454.2004 433.912 Q453.8764 434.056 453.4084 434.2 Q452.9404 434.344 452.4244 434.344 Q452.0884 434.344 451.7944 434.26 Q451.5004 434.176 451.2784 433.99 Q451.0564 433.804 450.9244 433.51 Q450.7924 433.216 450.7924 432.796 L450.7924 429.184 L449.9644 429.184 L449.9644 427.948 L450.7924 427.948 L450.7924 425.908 L452.4005 425.908 L452.4005 427.948 L453.7204 427.948 L453.7204 429.184 L452.4005 429.184 L452.4005 432.256 Q452.4005 432.592 452.5744 432.73 Q452.7484 432.868 453.0004 432.868 Q453.2524 432.868 453.4924 432.784 Q453.7325 432.7 453.8764 432.64 ZM457.9565 434.356 Q457.2004 434.356 456.5884 434.098 Q455.9764 433.84 455.5444 433.396 Q455.1124 432.952 454.8784 432.364 Q454.6444 431.776 454.6444 431.128 Q454.6444 430.456 454.8724 429.862 Q455.1004 429.268 455.5324 428.818 Q455.9644 428.368 456.5824 428.104 Q457.2004 427.84 457.9684 427.84 Q458.7365 427.84 459.3424 428.104 Q459.9485 428.368 460.3745 428.812 Q460.8004 429.256 461.0224 429.844 Q461.2444 430.432 461.2444 431.068 Q461.2444 431.224 461.2384 431.368 Q461.2325 431.512 461.2084 431.608 L456.3484 431.608 Q456.3844 431.98 456.5284 432.268 Q456.6725 432.556 456.9005 432.76 Q457.1284 432.964 457.4164 433.072 Q457.7044 433.18 458.0164 433.18 Q458.4964 433.18 458.9225 432.946 Q459.3484 432.712 459.5045 432.328 L460.8844 432.712 Q460.5364 433.432 459.7744 433.894 Q459.0125 434.356 457.9565 434.356 ZM459.5884 430.564 Q459.5284 429.856 459.0664 429.43 Q458.6044 429.004 457.9444 429.004 Q457.6205 429.004 457.3384 429.118 Q457.0564 429.232 456.8405 429.436 Q456.6245 429.64 456.4865 429.928 Q456.3484 430.216 456.3244 430.564 ZM465.9724 429.34 Q465.2404 429.352 464.6644 429.622 Q464.0884 429.892 463.8364 430.432 L463.8364 434.236 L462.2284 434.236 L462.2284 427.948 L463.7044 427.948 L463.7044 429.292 Q463.8724 428.968 464.1004 428.71 Q464.3284 428.452 464.5924 428.26 Q464.8564 428.068 465.1264 427.966 Q465.3964 427.864 465.6484 427.864 Q465.7804 427.864 465.8464 427.864 Q465.9124 427.864 465.9724 427.876 Z" clip-path="url(#clipPath4)" stroke="none"/>
    </g>
    <g text-rendering="geometricPrecision" shape-rendering="geometricPrecision" transform="matrix(1.4888,0,0,1.4264,15.0549,13.7375)">
      <g clip-path="url(#clipPath5)">
        <svg xml:space="preserve" opacity="1" writing-mode="lr-tb" stop-color="rgb(0, 0, 0)" shape-rendering="auto" glyph-orientation-horizontal="0deg" color-profile="auto" lighting-color="rgb(255, 255, 255)" color="rgb(0, 0, 0)" font-weight="400" alignment-baseline="auto" font-style="normal" version="1.1" color-interpolation-filters="linearrgb" text-anchor="start" stroke-linecap="butt" color-interpolation="srgb" font-variant="normal" word-spacing="normal" fill-opacity="1" text-rendering="auto" clip-path="none" text-decoration="none" letter-spacing="normal" viewBox="-0.064 -0.075 68 46" glyph-orientation-vertical="auto" display="inline" font-size-adjust="none" overflow="hidden" fill="rgb(0, 0, 0)" font-stretch="normal" stroke-dasharray="none" stroke-miterlimit="4" stop-opacity="1" color-rendering="auto" font-size="12" pointer-events="visiblepainted" mask="none" direction="ltr" baseline-shift="baseline" enable-background="new -0.064 -0.075 68 46" fill-rule="nonzero" image-rendering="auto" stroke-dashoffset="0" width="68px" marker-end="none" clip="auto" cursor="auto" stroke="none" filter="none" visibility="visible" kerning="auto" stroke-width="1" font-family="&quot;Arial&quot;,&quot;Helvetica&quot;,sans-serif" flood-opacity="1" clip-rule="nonzero" src="none" height="46px" unicode-bidi="normal" stroke-linejoin="miter" stroke-opacity="1" flood-color="rgb(0, 0, 0)" dominant-baseline="auto" marker-start="none" x="0px" marker-mid="none" y="0px">
<defs>
<linearGradient x1="345.8336" gradientUnits="userSpaceOnUse" x2="474.9571" y1="326.2809" y2="447.6693" id="linearGradient1" spreadMethod="reflect"><stop stop-opacity="1" stop-color="rgb(49,255,255)" offset="0%"/><stop stop-opacity="1" stop-color="white" offset="100%"/></linearGradient><clipPath clipPathUnits="userSpaceOnUse" id="clipPath1"><path d="M0 0 L130 0 L130 122 L0 122 L0 0 Z"/></clipPath><clipPath clipPathUnits="userSpaceOnUse" id="clipPath2"><path d="M345 326 L475 326 L475 448 L345 448 L345 326 Z"/></clipPath><clipPath clipPathUnits="userSpaceOnUse" id="clipPath3"><path d="M368.9657 407.956 L368.9657 424.044 L451.825 424.044 L451.825 407.956 Z"/></clipPath><clipPath clipPathUnits="userSpaceOnUse" id="clipPath4"><path d="M354.6366 422.956 L354.6366 439.044 L466.1541 439.044 L466.1541 422.956 Z"/></clipPath><clipPath clipPathUnits="userSpaceOnUse" id="clipPath5"><path d="M-10.1122 -9.6311 L77.2071 -9.6311 L77.2071 75.9003 L-10.1122 75.9003 L-10.1122 -9.6311 Z"/></clipPath></defs>
<radialGradient gradientTransform="matrix(1.15 0 0 1 -526.6598 -1982.4023)" id="svg1.SVGID_1_" r="21.6001" cx="478.8413" gradientUnits="userSpaceOnUse" cy="1991.2729">
	<stop offset="0" style="stop-color:#F2F2F2"/>
	<stop offset="1" style="stop-color:#8D8D8D"/>
</radialGradient>
<path fill="url(#svg1.SVGID_1_)" d="M10.263,1.903c0-0.987,0.807-1.794,1.794-1.794h43.279c0.986,0,1.795,0.807,1.795,1.794v26.978  c0,0.987-0.809,1.794-1.795,1.794h-43.28c-0.987,0-1.794-0.807-1.794-1.794L10.263,1.903L10.263,1.903z"/>
<path stroke-linecap="round" display="none" fill="none" stroke-linejoin="round" d="  M10.263,1.903c0-0.987,0.807-1.794,1.794-1.794h43.279c0.986,0,1.795,0.807,1.795,1.794v26.978c0,0.987-0.809,1.794-1.795,1.794  h-43.28c-0.987,0-1.794-0.807-1.794-1.794L10.263,1.903L10.263,1.903z" stroke="#3C89C9" stroke-width="0.2185" stroke-miterlimit="10"/>
<radialGradient gradientTransform="matrix(1.1935 0 0 1 -509.6731 -1982.4023)" gradientUnits="userSpaceOnUse" r="47.8462" cx="455.894" id="svg1.SVGID_2_" cy="1983.9624" fx="493.5344" fy="1977.5143">
	<stop offset="0" style="stop-color:#4D4D4D"/>
	<stop offset="1" style="stop-color:#999999"/>
</radialGradient>
<path fill="url(#svg1.SVGID_2_)" d="M11.18,2.819c0-0.987,0.807-1.794,1.794-1.794h41.649c0.986,0,1.795,0.807,1.795,1.794v24.943  c0,0.985-0.809,1.794-1.795,1.794H12.974c-0.987,0-1.794-0.809-1.794-1.794V2.819z"/>
<radialGradient gradientTransform="matrix(1.1923 0 0 1 -510.1314 -1982.4023)" id="svg1.SVGID_3_" r="30.6699" cx="456.8843" gradientUnits="userSpaceOnUse" cy="1984.0386">
	<stop offset="0" style="stop-color:#9CD7FF"/>
	<stop offset="1" style="stop-color:#3C89C9"/>
</radialGradient>
<path fill="url(#svg1.SVGID_3_)" d="M11.689,3.228c0-0.987,0.807-1.794,1.794-1.794h40.633c0.986,0,1.795,0.807,1.795,1.794v24.126  c0,0.986-0.809,1.794-1.795,1.794H13.483c-0.987,0-1.794-0.809-1.794-1.794V3.228z"/>
<path fill="#F2F2F2" opacity="0.24" d="M11.689,21.472V3.228c0-0.987,0.807-1.794,1.794-1.794h40.633  c0.986,0,1.795,0.807,1.795,1.794v9.454c0,0.987-10.518,5.21-18.256,6.795C29.917,21.062,11.689,21.472,11.689,21.472z"/>
<linearGradient gradientTransform="matrix(1 0 0 -1 -97.6001 -165.0498)" x1="131.3501" x2="131.3501" gradientUnits="userSpaceOnUse" y1="-212.2612" y2="-170.6274" id="svg1.SVGID_4_">
	<stop offset="0" style="stop-color:#4D4D4D"/>
	<stop offset="0.0667" style="stop-color:#717171"/>
	<stop offset="0.069" style="stop-color:#757575"/>
	<stop offset="0.0831" style="stop-color:#8C8C8C"/>
	<stop offset="0.0996" style="stop-color:#9E9E9E"/>
	<stop offset="0.1196" style="stop-color:#AAAAAA"/>
	<stop offset="0.1466" style="stop-color:#B1B1B1"/>
	<stop offset="0.2121" style="stop-color:#B3B3B3"/>
	<stop offset="1" style="stop-color:#C5C5C5"/>
</linearGradient>
<path fill="url(#svg1.SVGID_4_)" d="M58.385,32.234c-0.689-0.856-2.154-1.559-3.254-1.559H12c-1.1,0-2.552,0.711-3.227,1.579  l-7.546,9.717C0,43.55,0.042,43.785,0,44.55v0.125c0.056,0.393,0.311,1.002,1.248,1.002h64.75c0.75,0.002,1.5-0.252,1.5-1.002V44.55  c0-0.813,0-0.813-1.254-2.559L58.385,32.234z"/>
<path fill="#F2F2F2" d="M58.385,32.234c-0.689-0.856-2.154-1.559-3.254-1.559H12  c-1.1,0-2.552,0.711-3.227,1.579l-7.055,9.085l58.098-7.33L58.385,32.234z" enable-background="new    " opacity="0.23"/>
<path fill="#6E6E6E" d="M59.75,37.205c0.344,0.431,0.172,0.783-0.377,0.783H8.249c-0.55,0-0.742-0.369-0.427-0.819l2.786-3.986  c0.315-0.45,1.023-0.819,1.573-0.819h42.729c0.551,0,1.279,0.354,1.623,0.783L59.75,37.205z"/>
<path fill="#6E6E6E" d="M40.43,41.906c0.072,0.217-0.057,0.395-0.285,0.395H26.727c-0.229,0-0.364-0.18-0.3-0.398l0.822-2.826  c0.064-0.221,0.303-0.399,0.532-0.399h11.167c0.229,0,0.475,0.179,0.547,0.396L40.43,41.906z"/>
</svg>
      </g>
    </g>
  </g>
</svg>
